# AST/ASF file generated using VICON BodyLanguage
# -----------------------------------------------
:version 1.10
:name VICON
:units
  mass 1.0
  length 0.45
  angle deg
:documentation
   .ast/.asf automatically generated from VICON data using
   VICON BodyBuilder and BodyLanguage model FoxedUp or BRILLIANT.MOD
:root
   order TX TY TZ RX RY RZ
   axis XYZ
   position 0 0 0  
   orientation 0 0 0 
:bonedata
  begin
     id 1 
     name lhipjoint
     direction 0.577973 -0.728611 0.367523 
     length 2.48544 
     axis 0 0 0  XYZ
  end
  begin
     id 2 
     name lfemur
     direction 0.34202 -0.939693 0  
     length 7.1921  
     axis 0 0 20  XYZ
    dof rx ry rz
    limits (-160.0 20.0)
           (-70.0 70.0)
           (-60.0 70.0)
  end
  begin
     id 3 
     name ltibia
     direction 0.34202 -0.939693 0   
     length 7.71059   
     axis 0 0 20   XYZ
    dof rx
    limits (-10.0 170.0)
  end
  begin
     id 4 
     name lfoot
     direction 0.089538 -0.246004 0.965124   
     length 2.19909   
     axis -90 7.62852e-016 20   XYZ
    dof rx rz
    limits (-45.0 90.0)
           (-70.0 20.0)
  end
  begin
     id 5 
     name ltoes
     direction 1.53544e-011 -4.21829e-011 1   
     length 1.10116   
     axis -90 7.62852e-016 20   XYZ
    dof rx
    limits (-90.0 20.0)
  end
  begin
     id 6 
     name rhipjoint
     direction -0.554414 -0.743062 0.374812   
     length 2.4371  
     axis 0 0 0  XYZ 
  end
  begin
     id 7 
     name rfemur
     direction -0.34202 -0.939693 0   
     length 7.47254   
     axis 0 0 -20   XYZ
    dof rx ry rz
    limits (-160.0 20.0)
           (-70.0 70.0)
           (-70.0 60.0)
  end
  begin
     id 8 
     name rtibia
     direction -0.34202 -0.939693 0   
     length 7.65855   
     axis 0 0 -20   XYZ
    dof rx
    limits (-10.0 170.0)
 end
 begin
     id 9 
     name rfoot
     direction -0.133779 -0.367555 0.92033   
     length 2.43006  
     axis -90 -7.62852e-016 -20   XYZ
    dof rx rz
    limits (-45.0 90.0)
           (-20.0 70.0)
  end
  begin
     id 10 
     name rtoes
     direction -1.53563e-011 -4.21889e-011 1   
     length 1.19625   
     axis -90 -7.62852e-016 -20   XYZ
    dof rx
    limits (-90.0 20.0)
  end
  begin
     id 11 
     name lowerback
     direction 0.0249066 0.998043 -0.0573585   
     length 2.08485   
     axis 0 0 0   XYZ
    dof rx ry rz
    limits (-20.0 45.0)
           (-30.0 30.0)
           (-30.0 30.0)
  end
  begin
     id 12 
     name upperback
     direction 0.0237884 0.999673 0.00943178   
     length 2.08515   
     axis 0 0 0   XYZ
    dof rx ry rz
    limits (-20.0 45.0)
           (-30.0 30.0)
           (-30.0 30.0)
  end
  begin
     id 13 
     name thorax
     direction 0.0106671 0.999301 0.0358174   
     length 2.09037   
     axis 0 0 0   XYZ
    dof rx ry rz
    limits (-20.0 45.0)
           (-30.0 30.0)
           (-30.0 30.0)
  end
  begin
     id 14 
     name lowerneck
     direction -0.0580016 0.987052 0.149546   
     length 1.84454   
     axis 0 0 0   XYZ
    dof rx ry rz
    limits (-20.0 45.0)
           (-30.0 30.0)
           (-30.0 30.0)
  end
  begin
     id 15 
     name upperneck
     direction 0.079456 0.981963 -0.171567   
     length 1.88141   
     axis 0 0 0   XYZ
    dof rx ry rz
    limits (-20.0 45.0)
           (-30.0 30.0)
           (-30.0 30.0)
  end
  begin
     id 16
     name head
     direction 0.0262167 0.9967 -0.0768276  
     length 1.89541  
     axis 0 0 0   XYZ
    dof rx ry rz
    limits (-20.0 45.0)
           (-30.0 30.0)
           (-30.0 30.0)
  end
  begin
     id 17 
     name lclavicle
     direction 0.946135 0.322134 -0.0325326  
     length 3.949  
     axis 0 0 0   XYZ
    dof ry rz
    limits (-20.0 10.0)
           (0.0 20.0)
  end
  begin
     id 18 
     name lhumerus
     direction 1 -4.48964e-011 1.94005e-028   
     length 5.10995   
     axis 180 -30 -90   XYZ
    dof rx ry rz
    limits (-60.0 90.0)
           (-90.0 90.0)
           (-90.0 90.0)
  end
  begin
     id 19
     name lradius
     direction 1 -4.48976e-011 2.87852e-027   
     length 3.21207   
     axis 180 -30 -90   XYZ
    dof rx
    limits (-10.0 170.0)
  end
  begin
     id 20
     name lwrist
     direction 1 -4.48963e-011 1.9975e-027   
     length 1.60604   
     axis 2.96054e-016 90 90   XYZ
    dof ry
    limits (-180.0 0.0)
 end
  begin
     id 21 
     name lhand
     direction 1 -4.48919e-011 4.00227e-027   
     length 0.63349   
     axis -2.5488e-015 90 90   XYZ
    dof rx rz
    limits (-90.0 90.0)
           (-45.0 45.0)
  end
  begin
     id 22 
     name lfingers
     direction 1 -4.49037e-011 7.9652e-027   
     length 0.510736   
     axis -5.0975e-015 90 90   XYZ
    dof rx
    limits (0.0 90.0)
  end
  begin
     id 23
     name lthumb
     direction 0.707107 -6.34922e-011 0.707107   
     length 0.733318   
     axis -90 45 -4.48553e-014   XYZ
    dof rx rz
    limits (-45.0 45.0)
           (-45.0 45.0)
  end
  begin
     id 24 
     name rclavicle
     direction -0.940085 0.328911 -0.0897654   
     length 3.93848  
     axis 0 0 0   XYZ 
    dof ry rz
    limits (-10.0 20.0)
           (-20.0 0.0)
  end
  begin
     id 25 
     name rhumerus
     direction -1 -4.48958e-011 3.02044e-027  
     length 5.25109   
     axis 180 30 90   XYZ
    dof rx ry rz
    limits (-90.0 60.0)
           (-90.0 90.0)
           (-90.0 90.0)
  end
  begin
     id 26 
     name rradius
     direction -1 -4.4897e-011 9.78352e-028   
     length 3.28364   
     axis 180 30 90   XYZ
    dof rx
    limits (-10.0 170.0)
  end
  begin
     id 27 
     name rwrist
     direction -1 -4.48943e-011 1.99918e-027   
     length 1.64182   
     axis 2.96054e-016 -90 -90   XYZ
    dof ry
    limits (-180.0 0.0)
  end
  begin
     id 28
     name rhand
     direction -1 -4.49024e-011 3.98478e-027   
     length 0.599745   
     axis -2.5488e-015 -90 -90   XYZ
    dof rx rz
    limits (-90.0 90.0)
           (-45.0 45.0)
  end
  begin
     id 29
     name rfingers
     direction -1 -4.48914e-011 8.00621e-027   
     length 0.48353   
     axis -5.0975e-015 -90 -90   XYZ
    dof rx
    limits (0.0 90.0)
  end
  begin
     id 30
     name rthumb
     direction -0.707107 -6.34992e-011 0.707107   
     length 0.694255   
     axis -90 -45 4.48553e-014   XYZ
    dof rx rz
    limits (-45.0 45.0)
           (-45.0 45.0)
  end
:hierarchy
  begin
    root lhipjoint rhipjoint lowerback
    lhipjoint lfemur
    lfemur ltibia
    ltibia lfoot
    lfoot ltoes
    rhipjoint rfemur
    rfemur rtibia
    rtibia rfoot
    rfoot rtoes
    lowerback upperback
    upperback thorax
    thorax lowerneck lclavicle rclavicle
    lowerneck upperneck
    upperneck head
    lclavicle lhumerus
    lhumerus lradius
    lradius lwrist
    lwrist lhand lthumb
    lhand lfingers
    rclavicle rhumerus
    rhumerus rradius
    rradius rwrist
    rwrist rhand rthumb
    rhand rfingers
  end

#!OML:ASF E:\CV Data\Top Level 1\Subject 1\Session 1\player.ASF
:FULLY-SPECIFIED
:DEGREES
951
root 6.47345 15.8197 -9.61423 127.695 -76.6377 -149.917
lowerback 10.2374 0.964909 6.63432
upperback 2.38994 1.92821 1.7075
thorax -3.07643 0.868538 -2.19039
lowerneck -14.2039 15.3211 -4.46223
upperneck 28.3269 19.2384 12.4966
head 9.46927 9.81864 7.11989
rclavicle -1.0138e-014 1.35174e-014
rhumerus 171.729 155.188 83.8434
rradius 82.3093
rwrist 3.12167
rhand -43.4077 36.8464
rfingers 7.12502
rthumb -16.251 7.50748
lclavicle -1.0138e-014 1.35174e-014
lhumerus 17.8072 -39.3291 74.6115
lradius 74.2637
lwrist -6.59562
lhand -24.4222 0.722774
lfingers 7.12502
lthumb 2.06962 30.6925
rfemur -0.741284 3.34303 35.4286
rtibia 54.1383
rfoot -28.0725 1.07738
rtoes 10.4593
lfemur -44.4651 20.7089 -8.21152
ltibia 59.4846
lfoot -14.7099 -5.4181
ltoes -16.5868
952
root 6.44611 15.8333 -9.58054 127.136 -76.7277 -149.406
lowerback 10.375 0.92462 6.79601
upperback 2.54476 1.88996 1.87116
thorax -2.99309 0.849542 -2.10655
lowerneck -14.3093 15.3154 -4.48479
upperneck 28.3125 19.293 12.3091
head 9.49958 9.81976 7.07814
rclavicle -3.60794e-014 -3.02153e-014
rhumerus 171.517 156.69 83.2013
rradius 79.7645
rwrist 2.35049
rhand -42.9767 35.336
rfingers 7.12502
rthumb -15.8359 5.96364
lclavicle -3.60794e-014 -3.02153e-014
lhumerus 18.9458 -38.961 73.4029
lradius 70.7839
lwrist -8.41224
lhand -23.3332 1.09581
lfingers 7.12502
lthumb 3.1213 31.0527
rfemur -0.479756 3.15787 35.2685
rtibia 53.8822
rfoot -28.0887 0.994683
rtoes 10.0333
lfemur -45.4249 20.6617 -8.57592
ltibia 56.4891
lfoot -14.5153 -4.89488
ltoes -17.0827
953
root 6.42138 15.8475 -9.54564 126.593 -76.8236 -148.899
lowerback 10.5196 0.883096 6.96017
upperback 2.70406 1.84989 2.02959
thorax -2.90849 0.829588 -2.02924
lowerneck -14.4223 15.3123 -4.51577
upperneck 28.2756 19.3564 12.1156
head 9.52236 9.8244 7.03469
rclavicle 3.64273e-014 2.60408e-014
rhumerus 171.344 158.18 82.6482
rradius 77.1161
rwrist 1.49661
rhand -42.5982 33.8025
rfingers 7.12502
rthumb -15.4714 4.40161
lclavicle 3.64273e-014 2.60408e-014
lhumerus 20.0789 -38.5876 72.1719
lradius 67.2914
lwrist -10.0351
lhand -22.3042 1.23593
lfingers 7.12502
lthumb 4.11499 31.1759
rfemur -0.244461 2.98157 35.0967
rtibia 53.6276
rfoot -28.097 0.906127
rtoes 9.56913
lfemur -46.2984 20.5407 -8.88623
ltibia 53.4908
lfoot -14.198 -4.24828
ltoes -17.4769
954
root 6.3995 15.8621 -9.51034 126.102 -76.9297 -148.426
lowerback 10.6694 0.844329 7.1055
upperback 2.8645 1.81138 2.18266
thorax -2.82563 0.810407 -1.94714
lowerneck -14.5404 15.314 -4.54067
upperneck 28.224 19.4292 11.9094
head 9.54241 9.83288 6.98631
rclavicle -2.40281e-014 -2.61402e-014
rhumerus 171.211 159.644 82.1881
rradius 74.3918
rwrist 0.42344
rhand -42.2047 32.3019
rfingers 7.12502
rthumb -15.0924 2.87206
lclavicle -2.40281e-014 -2.61402e-014
lhumerus 21.1934 -38.2238 70.8997
lradius 63.8517
lwrist -11.278
lhand -21.3728 1.22908
lfingers 7.12502
lthumb 5.01441 31.1497
rfemur -0.0411928 2.8223 34.9115
rtibia 53.3776
rfoot -28.098 0.807198
rtoes 9.07079
lfemur -47.0949 20.3599 -9.14024
ltibia 50.5088
lfoot -13.769 -3.50362
ltoes -17.7703
955
root 6.38008 15.8775 -9.47426 125.69 -77.0358 -148.023
lowerback 10.8297 0.810596 7.24469
upperback 3.02755 1.77906 2.32627
thorax -2.74487 0.794222 -1.87227
lowerneck -14.6603 15.3212 -4.56068
upperneck 28.1587 19.5114 11.6947
head 9.55883 9.84556 6.93429
rclavicle -1.05232e-014 -3.26007e-014
rhumerus 171.114 161.067 81.8165
rradius 71.6234
rwrist -0.975069
rhand -41.7434 30.9247
rfingers 7.12502
rthumb -14.648 1.46204
lclavicle -1.05232e-014 -3.26007e-014
lhumerus 22.2652 -37.8678 69.5928
lradius 60.5119
lwrist -12.0811
lhand -20.4444 1.02874
lfingers 7.12502
lthumb 5.91077 30.9263
rfemur 0.140509 2.68539 34.7148
rtibia 53.1303
rfoot -28.0872 0.69512
rtoes 8.53557
lfemur -47.8075 20.1253 -9.32003
ltibia 47.5667
lfoot -13.2786 -2.66422
ltoes -18.023
